<svg id="Layer_1" xmlns="http://www.w3.org/2000/svg" viewBox="0 0 170 111"><style>.st0{fill:#fff}</style><path class="st0" d="M98.8 24.4a177.5 177.5 0 0 0-30.4 1.3c-6.8 7.4-3.1 18.6 10.4 17.5-1.8-.3-3.5-2.5-3.8-5.2-.4-3.2 1-6 3.2-6.3s4.3 2.1 4.7 5.3c.4 2.8-.7 5.3-2.4 6.1C92 41.2 98.8 24.4 98.8 24.4zM118.3 19.3a48.9 48.9 0 0 0-33.5-13A48.5 48.5 0 0 0 44.3 28c28.3-9.4 57.7-9.6 74-8.7zM66.3 86.4s10.9.7 27.2-.7c0 0-7.6-16.7-9.7-18.8-.9-.9-2.6-2-5.1.7-2.6 2.6-3.9 7-12.4 18.8zM125.5 27.7c-9.2-2.2-21-3.3-21-3.3-2 8.1-7.8 13-10 14.6-2.3 1.6-11.2 10.7-8.1 21.7C89.5 71.6 106 84.5 106 84.5c5.2-.3 14.1-1.4 19.8-2.1A48.6 48.6 0 0 0 134 55c0-10.1-3.1-19.5-8.5-27.3z"/><path class="st0" d="M53.4 87C75.9 67.2 74.9 62.9 75 57.8c.1-5.1-1.9-8.3-2.5-9.3-.6-1-5.9-3.8-10.2-9.4-4.3-5.6-.9-12.3-.9-12.3-3.4.1-12.9 2.2-18.4 3.4a49.2 49.2 0 0 0 5 57.1l5.4-.3zM50.6 90.2a49.4 49.4 0 0 0 68.6.2c-32.8 2-55.9.9-68.6-.2z"/></svg>