<svg xmlns="http://www.w3.org/2000/svg" version="1" viewBox="0 0 512 512"><path d="M264 160H163v61h101zM106 38c34 0 64-11 88-30h206v35l-152 76v41h-71v-41c0-39-31-81-71-81z" fill="#ffc853"/><path d="M345 342H81v162h264z" fill="#5fccc7"/><path d="M264 200H163v20h101z" fill="#dba34b"/><path d="M345 484H81v20h264z" fill="#4da39b"/><path d="M271 41h15V25h-15zm30 0h61V25h-61z" fill="#fff"/><path d="M149 32a86 86 0 0 1 49 76v31h50v21h-71v-41c0-39-31-81-71-81 15 0 30-2 43-6z" fill="#dba34b"/><path d="M155 213v-61h15v-33c0-34-28-73-64-73V30c31 0 60-10 84-28l2-2h216v48l-152 76v28h15v61c46 4 81 42 81 89v210H74V302c0-47 35-85 81-89zM393 38V15H197c-17 13-35 21-54 26a96 96 0 0 1 42 78v33h56v-38zM256 167h-86v46h86zM89 497h248V350H89zm248-162v-33c0-41-33-74-73-74H162c-40 0-73 33-73 74v33zM438 1h-15v47h15z"/><path d="M328 107l7-14 48 25-10-40 14-4 40 158-15 4-24-98zm-16 360h-15v15h15zm0-61h-15v15h15zm0 30h-15v15h15zm-132-71h-15v15h15zm0 31h-15v15h15zm0 30h-15v15h15zm61 31h-15v15h15zm0-61h-15v15h15zm0 30h-15v15h15zm-112 0h-15v15h15zm0 31h-15v15h15zm0-61h-15v15h15z"/></svg>
