<?xml version="1.0" encoding="UTF-8" standalone="no"?>
<svg
   xmlns:dc="http://purl.org/dc/elements/1.1/"
   xmlns:cc="http://creativecommons.org/ns#"
   xmlns:rdf="http://www.w3.org/1999/02/22-rdf-syntax-ns#"
   xmlns:svg="http://www.w3.org/2000/svg"
   xmlns="http://www.w3.org/2000/svg"
   xmlns:sodipodi="http://sodipodi.sourceforge.net/DTD/sodipodi-0.dtd"
   xmlns:inkscape="http://www.inkscape.org/namespaces/inkscape"
   version="1"
   viewBox="0 0 512 512"
   id="svg20"
   sodipodi:docname="spray.svg"
   inkscape:version="0.92.3 (2405546, 2018-03-11)">
  <metadata
     id="metadata26">
    <rdf:RDF>
      <cc:Work
         rdf:about="">
        <dc:format>image/svg+xml</dc:format>
        <dc:type
           rdf:resource="http://purl.org/dc/dcmitype/StillImage" />
      </cc:Work>
    </rdf:RDF>
  </metadata>
  <defs
     id="defs24" />
  <sodipodi:namedview
     pagecolor="#ffffff"
     bordercolor="#666666"
     borderopacity="1"
     objecttolerance="10"
     gridtolerance="10"
     guidetolerance="10"
     inkscape:pageopacity="0"
     inkscape:pageshadow="2"
     inkscape:window-width="1748"
     inkscape:window-height="935"
     id="namedview22"
     showgrid="false"
     inkscape:zoom="0.4609375"
     inkscape:cx="256"
     inkscape:cy="256"
     inkscape:window-x="0"
     inkscape:window-y="0"
     inkscape:window-maximized="0"
     inkscape:current-layer="svg20" />
  <g
     id="g4"
     transform="matrix(-1,0,0,1,512,0)"
     style="fill:#ffc853">
    <path
       d="m 248,160 h 101 v 61 H 248 Z M 406,38 C 372,38 342,27 318,8 H 112 v 35 l 152,76 v 41 h 71 v -41 c 0,-39 31,-81 71,-81 z"
       id="path2"
       inkscape:connector-curvature="0" />
  </g>
  <path
     d="M 345,342 H 81 v 162 h 264 z"
     id="path6"
     inkscape:connector-curvature="0"
     style="fill:#5fccc7" />
  <path
     d="M 264,200 H 163 v 20 h 101 z"
     id="path8"
     inkscape:connector-curvature="0"
     style="fill:#dba34b" />
  <path
     d="M 345,484 H 81 v 20 h 264 z"
     id="path10"
     inkscape:connector-curvature="0"
     style="fill:#4da39b" />
  <path
     d="m 271,41 h 15 V 25 h -15 z m 30,0 h 61 V 25 h -61 z"
     id="path12"
     inkscape:connector-curvature="0"
     style="fill:#ffffff" />
  <path
     d="m 149,32 a 86,86 0 0 1 49,76 v 31 h 50 v 21 h -71 v -41 c 0,-39 -31,-81 -71,-81 15,0 30,-2 43,-6 z"
     id="path14"
     inkscape:connector-curvature="0"
     style="fill:#dba34b" />
  <path
     d="m 155,213 v -61 h 15 V 119 C 170,85 142,46 106,46 V 30 c 31,0 60,-10 84,-28 l 2,-2 h 216 v 48 l -152,76 v 28 h 15 v 61 c 46,4 81,42 81,89 V 512 H 74 V 302 c 0,-47 35,-85 81,-89 z M 393,38 V 15 H 197 c -17,13 -35,21 -54,26 a 96,96 0 0 1 42,78 v 33 h 56 V 114 Z M 256,167 h -86 v 46 h 86 z M 89,497 H 337 V 350 H 89 Z M 337,335 v -33 c 0,-41 -33,-74 -73,-74 H 162 c -40,0 -73,33 -73,74 v 33 z M 438,1 h -15 v 47 h 15 z"
     id="path16"
     inkscape:connector-curvature="0" />
  <path
     d="m 328,107 7,-14 48,25 -10,-40 14,-4 40,158 -15,4 -24,-98 z m -16,360 h -15 v 15 h 15 z m 0,-61 h -15 v 15 h 15 z m 0,30 h -15 v 15 h 15 z M 180,365 h -15 v 15 h 15 z m 0,31 h -15 v 15 h 15 z m 0,30 h -15 v 15 h 15 z m 61,31 h -15 v 15 h 15 z m 0,-61 h -15 v 15 h 15 z m 0,30 h -15 v 15 h 15 z m -112,0 h -15 v 15 h 15 z m 0,31 h -15 v 15 h 15 z m 0,-61 h -15 v 15 h 15 z"
     id="path18"
     inkscape:connector-curvature="0" />
</svg>
