<svg xmlns="http://www.w3.org/2000/svg" viewBox="0 0 512 512"><path fill="#3e3d42" d="M152.5 328h112v32h-112z"/><path fill="#57565c" d="M456.5 276l-96-48v-64l96-48z"/><g fill="#3e3d42"><path d="M360.5 228l96 48v-16l-96-48zM120.5 296h176v32h-176zM144.5 96V15.5h96v24h-72V96"/></g><path fill="#57565c" d="M56.5 96h304v200h-304z"/><path fill="#3e3d42" d="M56.5 280h304v16h-304z"/><path fill="#57565c" d="M232.5 27.5c0-11 9-20 20-20h80a20 20 0 1 1 0 40h-80c-11 0-20-9-20-20z"/><path fill="#f8f8f8" d="M88.5 128h136v40h-136z"/><circle cx="312.5" cy="248" r="16" fill="#ff6b45"/><path d="M367.5 151.9V89h-192V47h41V32h-56v57h-9V23h73.9a27.6 27.6 0 0 0 27.1 32h80a27.5 27.5 0 0 0 0-55h-80c-7.5 0-14.4 3-19.4 8h-96.6v81h-88v215h64v32h32v32h51.3L124 497h-11.6v15h20.4l67.6-123v107h15V389l68.6 123h20.4v-15h-11.6l-71.7-129h50.3v-32h32v-32h64v-63.9l96 48V104l-96 48zM252.5 15h80a12.5 12.5 0 0 1 0 25h-80a12.5 12.5 0 0 1 0-25zm4 338h-97v-17h97v17zm32-32h-161v-17h161v17zm64-32h-289V104h289v185zm32-57.1l-17-8.5v-54.8l17-8.5V232zm64 32l-49-24.5v-86.8l49-24.5V264z"/><path d="M120.5 161h-25v-25h121v25h-80v15h95v-55h-151v55h40zM88.5 225h48v15h-48zM88.5 193h112v15h-112z"/><g fill="#fff"><path d="M184.5 225h16v15h-16zM424.5 153h16v15h-16zM152.5 225h16v15h-16z"/></g><path d="M312.5 271.5a23.5 23.5 0 1 0 0-47 23.5 23.5 0 0 0 0 47zm0-32a8.5 8.5 0 1 1 0 17 8.5 8.5 0 0 1 0-17z"/></svg>