<?xml version="1.0" encoding="iso-8859-1"?>
<!-- Generator: Adobe Illustrator 19.0.0, SVG Export Plug-In . SVG Version: 6.00 Build 0)  -->
<svg version="1.1" id="Layer_1" xmlns="http://www.w3.org/2000/svg" xmlns:xlink="http://www.w3.org/1999/xlink" x="0px" y="0px"
	 viewBox="0 0 512 512" style="enable-background:new 0 0 512 512;" xml:space="preserve">
<g>
	<path style="fill:#4B92B9;" d="M42.841,212.791h6.403V90.538h-6.403c-11.542,0-20.898,9.356-20.898,20.898v80.457
		C21.943,203.435,31.299,212.791,42.841,212.791z"/>
	<path style="fill:#4B92B9;" d="M196.777,284.306h-13.679l-10.005,36.693h19.377c4.712,0,8.842-3.155,10.081-7.701l4.306-15.795
		C208.67,290.856,203.667,284.306,196.777,284.306z"/>
</g>
<polygon style="fill:#79CAE8;" points="162.143,361.166 196.046,236.823 111.413,236.823 77.511,361.166 "/>
<g>
	<polygon style="fill:#4B92B9;" points="48.002,361.166 175.865,361.166 186.314,390.119 37.553,390.119 	"/>
	<rect x="7.837" y="390.124" style="fill:#4B92B9;" width="208.98" height="52.242"/>
</g>
<rect x="379.277" y="141.814" style="fill:#FFFFFF;" width="124.886" height="22.834"/>
<g>
	<path style="fill:#4B92B9;" d="M358.376,203.387h-24.033v-100.31h24.033c11.542,0,20.898,9.356,20.898,20.898v58.514
		C379.274,194.031,369.918,203.387,358.376,203.387z"/>
	<path style="fill:#4B92B9;" d="M246.572,69.64h66.873c11.542,0,20.898,9.356,20.898,20.898v125.388
		c0,11.542-9.356,20.898-20.898,20.898h-66.873L246.572,69.64L246.572,69.64z"/>
</g>
<path style="fill:#CAF9F4;" d="M246.572,236.823H70.142c-11.542,0-20.898-9.356-20.898-20.898V90.538
	c0-11.542,9.356-20.898,20.898-20.898h176.43L246.572,236.823L246.572,236.823z"/>
<path d="M512,133.978H387.111v-10.003c0-15.845-12.891-28.735-28.735-28.735h-3.135v15.673h3.135
	c7.201,0,13.061,5.859,13.061,13.061v58.514c0,7.201-5.86,13.061-13.061,13.061h-3.135v15.673h3.135
	c15.844,0,28.735-12.891,28.735-28.735v-10.004H512V133.978z M496.327,156.813H387.111v-7.161h109.216V156.813z"/>
<path d="M313.445,61.803h-59.037h-7.837H70.142c-13.13,0-24.224,8.857-27.642,20.906c-15.687,0.185-28.394,12.996-28.394,28.726
	v80.457c0,15.493,12.327,28.154,27.688,28.709c2.24,13.628,14.097,24.059,28.348,24.059h31.017L71.535,353.33H42.498l-10.449,28.952
	H0v67.915h224.653v-67.915h-32.837l-10.449-28.952h-8.961l6.677-24.492h13.387c8.218,0,15.473-5.539,17.644-13.477l4.306-15.802
	c1.509-5.546,0.373-11.345-3.116-15.911c-3.488-4.563-8.783-7.181-14.529-7.181h-3.416l8.671-31.807h44.542h7.837h59.037
	c15.844,0,28.735-12.891,28.735-28.735V90.538C342.18,74.694,329.29,61.803,313.445,61.803z M29.78,191.894v-80.457
	c0-6.717,5.098-12.262,11.628-12.979v106.413C34.878,204.155,29.78,198.611,29.78,191.894z M208.98,434.524H15.673v-36.568H208.98
	V434.524z M48.712,382.282l4.793-13.279h116.856l4.792,13.279H48.712z M196.775,292.14c1.125,0,1.784,0.642,2.076,1.024
	c0.294,0.383,0.742,1.19,0.446,2.276l-4.303,15.792c-0.311,1.138-1.349,1.932-2.524,1.932h-9.115l5.731-21.023L196.775,292.14
	L196.775,292.14z M156.161,353.33H87.78l29.624-108.669h68.381L156.161,353.33z M238.735,228.988H70.142
	c-7.201,0-13.061-5.86-13.061-13.061V90.539c0-7.202,5.86-13.061,13.061-13.061h168.593L238.735,228.988L238.735,228.988z
	 M326.507,215.927c0,7.201-5.86,13.061-13.061,13.061h-59.037V77.478h59.037c7.201,0,13.061,5.859,13.061,13.061V215.927z"/>
<rect x="74.71" y="118.231" width="15.673" height="70.008"/>
<rect x="106.057" y="118.231" width="15.673" height="70.008"/>
<rect x="137.404" y="118.231" width="15.673" height="70.008"/>
<g>
</g>
<g>
</g>
<g>
</g>
<g>
</g>
<g>
</g>
<g>
</g>
<g>
</g>
<g>
</g>
<g>
</g>
<g>
</g>
<g>
</g>
<g>
</g>
<g>
</g>
<g>
</g>
<g>
</g>
</svg>
