<?xml version="1.0" encoding="utf-8"?>
<!-- Generator: Adobe Illustrator 22.1.0, SVG Export Plug-In . SVG Version: 6.00 Build 0)  -->
<svg version="1.1" id="Capa_1" xmlns="http://www.w3.org/2000/svg" xmlns:xlink="http://www.w3.org/1999/xlink" x="0px" y="0px"
	 viewBox="0 0 938 938" style="enable-background:new 0 0 938 938;" xml:space="preserve">
<g>
	<path d="M259.5,501.3h25.2v25.2c0,4.2,3.4,7.6,7.6,7.6h19.7c4.2,0,7.6-3.4,7.6-7.6v-25.2h25.2c4.2,0,7.6-3.4,7.6-7.6V474
		c0-4.2-3.4-7.6-7.6-7.6h-25.2v-25.3c0-4.2-3.4-7.6-7.6-7.6h-19.7c-4.2,0-7.6,3.4-7.6,7.6v25.3h-25.2c-4.2,0-7.6,3.4-7.6,7.6v19.7
		C252,497.9,255.3,501.3,259.5,501.3z"/>
	<path d="M601.1,501.3h77c4.4,0,8-3.6,8-8v-18.9c0-4.4-3.6-8-8-8h-77c-4.4,0-8,3.6-8,8v18.9C593.1,497.7,596.7,501.3,601.1,501.3z"
		/>
	<path d="M469,4C212.2,4,4,212.2,4,469s208.2,465,465,465s465-208.2,465-465S725.8,4,469,4z M756.1,660.5c0,9.2-7.5,16.7-16.7,16.7
		H198.6c-9.2,0-16.7-7.5-16.7-16.7V380.2h574.2V660.5z M791,347.4c0,8.6-7,15.6-15.6,15.6l-19.3,0H181.9h-19.3
		c-8.6,0-15.6-7-15.6-15.6v-26.2c0-8.6,7-15.6,15.6-15.6h93.1v-29.2c0-8.6,7-15.6,15.6-15.6h67.2c8.6,0,15.6,7,15.6,15.6v29.2H590
		v-29.2c0-8.6,7-15.6,15.6-15.6h67.2c8.6,0,15.6,7,15.6,15.6v29.2h87c8.6,0,15.6,7,15.6,15.6V347.4z"/>
</g>
</svg>
