<?xml version="1.0" encoding="iso-8859-1"?>
<!-- Generator: Adobe Illustrator 19.0.0, SVG Export Plug-In . SVG Version: 6.00 Build 0)  -->
<svg version="1.1" id="Capa_1" xmlns="http://www.w3.org/2000/svg" xmlns:xlink="http://www.w3.org/1999/xlink" x="0px" y="0px"
	 viewBox="0 0 512 512" style="enable-background:new 0 0 512 512;" xml:space="preserve">
<g>
	<rect x="248.396" y="159.683" style="fill:#FFC853;" width="101.386" height="60.832"/>
	<path style="fill:#FFC853;" d="M405.545,38.02c-33.152,0-63.649-11.367-87.809-30.416H111.525v35.485l152.079,76.04v40.554h70.97
		v-40.554C334.574,79.933,366.349,38.02,405.545,38.02z"/>
</g>
<rect x="167.287" y="342.178" style="fill:#5FCCC7;" width="263.604" height="162.218"/>
<rect x="248.396" y="200.238" style="fill:#DBA34B;" width="101.386" height="20.277"/>
<rect x="167.287" y="484.119" style="fill:#4DA39B;" width="263.604" height="20.277"/>
<path style="fill:#FFFFFF;" d="M241.299,40.554h-15.208V25.347h15.208V40.554z M210.883,40.554h-60.832V25.347h60.832V40.554z"/>
<path style="fill:#DBA34B;" d="M362.932,31.504c-28.252,11.95-48.635,45.08-48.635,76.473v31.43h-50.693v20.277h70.97v-40.554
	c0-39.196,31.774-81.109,70.97-81.109C390.697,38.02,376.384,35.734,362.932,31.504z"/>
<path d="M357.386,213.24v-61.161h-15.208v-32.95c0-33.992,27.679-73.505,63.366-73.505V30.416c-30.482,0-59.218-9.953-83.1-28.784
	L320.373,0H103.921v47.788L256,123.828v28.251h-15.208v61.161c-45.369,3.87-81.109,42.029-81.109,88.383v32.951V512h278.812V334.574
	v-32.951C438.495,255.269,402.755,217.11,357.386,213.24z M119.129,38.39V15.208h196.008c16.369,12.452,34.706,21.228,54.23,26.053
	c-25.659,16.288-42.397,48.314-42.397,77.868v32.95h-55.762v-37.65L119.129,38.39z M256,167.287h86.178v45.624H256V167.287z
	 M423.287,496.792H174.891v-147.01h248.396V496.792z M174.891,334.574v-32.951c0-40.531,32.974-73.505,73.505-73.505h101.386
	c40.531,0,73.505,32.974,73.505,73.505v32.951H174.891z"/>
<rect x="73.505" y="0.507" width="15.208" height="46.638"/>
<polygon points="184.006,107.003 177.01,93.498 129.115,118.31 139.298,77.813 124.55,74.104 84.888,231.841 99.635,235.549 
	124.164,138.002 "/>
<rect x="200.238" y="466.883" width="15.208" height="15.208"/>
<rect x="200.238" y="406.051" width="15.208" height="15.208"/>
<rect x="200.238" y="436.467" width="15.208" height="15.208"/>
<rect x="332.04" y="365.497" width="15.208" height="15.208"/>
<rect x="332.04" y="395.913" width="15.208" height="15.208"/>
<rect x="332.04" y="426.329" width="15.208" height="15.208"/>
<rect x="271.208" y="456.745" width="15.208" height="15.208"/>
<rect x="271.208" y="395.913" width="15.208" height="15.208"/>
<rect x="271.208" y="426.329" width="15.208" height="15.208"/>
<rect x="382.733" y="426.329" width="15.208" height="15.208"/>
<rect x="382.733" y="456.745" width="15.208" height="15.208"/>
<rect x="382.733" y="395.913" width="15.208" height="15.208"/>
<g>
</g>
<g>
</g>
<g>
</g>
<g>
</g>
<g>
</g>
<g>
</g>
<g>
</g>
<g>
</g>
<g>
</g>
<g>
</g>
<g>
</g>
<g>
</g>
<g>
</g>
<g>
</g>
<g>
</g>
</svg>
