<?xml version="1.0" encoding="iso-8859-1"?>
<!-- Generator: Adobe Illustrator 19.0.0, SVG Export Plug-In . SVG Version: 6.00 Build 0)  -->
<svg version="1.1" id="Capa_1" xmlns="http://www.w3.org/2000/svg" xmlns:xlink="http://www.w3.org/1999/xlink" x="0px" y="0px"
	 viewBox="0 0 512 512" style="enable-background:new 0 0 512 512;" xml:space="preserve">
<rect x="152.5" y="328" style="fill:#3E3D42;" width="112" height="32"/>
<polygon style="fill:#57565C;" points="456.5,276 360.5,228 360.5,164 456.5,116 "/>
<g>
	<polygon style="fill:#3E3D42;" points="360.5,228 456.5,276 456.5,260 360.5,212 	"/>
	<rect x="120.5" y="296" style="fill:#3E3D42;" width="176" height="32"/>
	<polyline style="fill:#3E3D42;" points="144.5,96 144.5,15.5 240.5,15.5 240.5,39.5 168.5,39.5 168.5,96 	"/>
</g>
<rect x="56.5" y="96" style="fill:#57565C;" width="304" height="200"/>
<rect x="56.5" y="280" style="fill:#3E3D42;" width="304" height="16"/>
<path style="fill:#57565C;" d="M232.5,27.5L232.5,27.5c0-11.046,8.954-20,20-20h80c11.046,0,20,8.954,20,20l0,0
	c0,11.046-8.954,20-20,20h-80C241.454,47.5,232.5,38.546,232.5,27.5z"/>
<rect x="88.5" y="128" style="fill:#F8F8F8;" width="136" height="40"/>
<circle style="fill:#FF6B45;" cx="312.5" cy="248" r="16"/>
<path d="M367.5,151.865V89h-192V47h41V32h-56v57h-9V23h73.874c-0.242,1.465-0.374,2.967-0.374,4.5c0,15.163,12.336,27.5,27.5,27.5
	h80c15.163,0,27.5-12.337,27.5-27.5S347.663,0,332.5,0h-80c-7.549,0-14.395,3.059-19.369,8H136.5v81h-88v215h64v32h32v32h51.275
	L124.08,497H112.5v15h20.42l67.58-122.969V496h15V389.032L284.079,512H304.5v-15h-11.579l-71.696-129H271.5v-32h32v-32h64v-63.865
	l96,48V103.864L367.5,151.865z M252.5,15h80c6.893,0,12.5,5.607,12.5,12.5S339.393,40,332.5,40h-80c-6.893,0-12.5-5.607-12.5-12.5
	S245.607,15,252.5,15z M256.5,353h-97v-17h97V353z M288.5,321h-161v-17h161V321z M352.5,289h-289V104h289V289z M384.5,231.865
	l-17-8.5v-54.729l17-8.5V231.865z M448.5,263.865l-49-24.5v-86.73l49-24.5V263.865z"/>
<polygon points="120.5,161 95.5,161 95.5,136 216.5,136 216.5,161 136.5,161 136.5,176 231.5,176 231.5,121 80.5,121 80.5,176 
	120.5,176 "/>
<rect x="88.5" y="225" width="48" height="15"/>
<rect x="88.5" y="193" width="112" height="15"/>
<g>
	<rect x="184.5" y="225" style="fill:#FFFFFF;" width="16" height="15"/>
	<rect x="424.5" y="153" style="fill:#FFFFFF;" width="16" height="15"/>
	<rect x="152.5" y="225" style="fill:#FFFFFF;" width="16" height="15"/>
</g>
<path d="M312.5,271.5c12.958,0,23.5-10.542,23.5-23.5s-10.542-23.5-23.5-23.5S289,235.042,289,248
	C289,260.958,299.542,271.5,312.5,271.5z M312.5,239.5c4.686,0,8.5,3.814,8.5,8.5s-3.814,8.5-8.5,8.5s-8.5-3.814-8.5-8.5
	S307.814,239.5,312.5,239.5z"/>
<g>
</g>
<g>
</g>
<g>
</g>
<g>
</g>
<g>
</g>
<g>
</g>
<g>
</g>
<g>
</g>
<g>
</g>
<g>
</g>
<g>
</g>
<g>
</g>
<g>
</g>
<g>
</g>
<g>
</g>
</svg>
