<?xml version="1.0" encoding="iso-8859-1"?>
<!-- Generator: Adobe Illustrator 19.0.0, SVG Export Plug-In . SVG Version: 6.00 Build 0)  -->
<svg version="1.1" id="Capa_1" xmlns="http://www.w3.org/2000/svg" xmlns:xlink="http://www.w3.org/1999/xlink" x="0px" y="0px"
	 viewBox="0 0 349.2 349.2" style="enable-background:new 0 0 349.2 349.2;" xml:space="preserve">
<g>
	<g>
		<g>
			<path d="M334,48.8c-9.2-9.2-22.4-15.2-36.4-15.2h-136c-3.6,0-6.4,2.8-6.4,6.4v1.2h-4.4c-11.2,0-21.6,4.8-28.8,12
				c-2.8,2.8-5.2,6.4-7.2,10H93.6c-8.4,0-16,3.6-21.6,8.8c-4,4-6.4,9.6-7.6,15.2h-58C2.8,87.2,0,90,0,93.6c0,3.6,2.8,6.4,6.4,6.4h58
				c1.2,5.6,3.6,11.2,7.6,15.2l0.4,0.4c5.6,5.2,12.8,8.8,21.2,8.8h21.2c2,3.6,4,6.8,7.2,10c7.6,7.6,17.6,12,28.8,12h4.4v1.2
				c0,3.6,2.8,6.4,6.4,6.4H244v84.8c-9.2,2.4-17.6,7.2-24.4,13.6c-9.6,9.6-15.2,22.4-15.2,36.8v20c0,3.6,2.8,6.4,6.4,6.4h98
				c3.6,0,6.4-2.8,6.4-6.4V258c0-5.6-2.4-10.8-6-14.8l-0.4-0.4c-1.6-1.6-3.2-2.4-5.2-3.6v-86.4c11.6-1.6,22.4-6.8,30.4-14.8
				c9.6-9.6,15.2-22.4,15.2-36.8V85.6C349.2,71.2,343.2,58.4,334,48.8z M110.4,111.6H93.6c-4.8,0-9.2-2-12.4-4.8c0,0,0,0-0.4-0.4
				c-3.2-3.2-5.2-7.6-5.2-12.8c0-4.8,2-9.2,5.2-12.8c3.2-3.2,7.6-5.2,12.8-5.2h16.8c-0.4,2-0.4,4.4-0.4,6.4v22.8
				C110,107.2,110,109.2,110.4,111.6z M155.2,133.2h-4.4c-7.6,0-14.8-3.2-20-8.4c-5.2-5.2-8.4-12.4-8.4-20V82c0-7.6,3.2-14.8,8.4-20
				c5.2-5.2,12.4-8.4,20-8.4h4.4V133.2z M302.8,302.4h-85.6v-7.6h85.6V302.4z M303.2,282.4h-85.6c1.6-8.4,5.2-16,11.2-21.6
				c7.2-7.2,16.8-11.6,28-11.6H294c2.4,0,4.8,1.2,6.4,2.8l0.4,0.4c1.6,1.6,2.4,3.6,2.4,6V282.4z M256.8,236.4v-83.2h34.4v83.2H256.8
				z M337.2,101.2h-0.4c0,10.8-4.4,20.8-11.6,28s-16.8,11.6-28,11.6h-46.8H168v-1.2v-92v-1.2h129.6c10.8,0,20.8,4.4,28,11.6
				s11.6,16.8,11.6,28V101.2z"/>
			<path d="M296.4,69.6h-63.2c-3.6,0-6.4,2.8-6.4,6.4c0,3.6,2.8,6.4,6.4,6.4h63.2c3.6,0,6.4-2.8,6.4-6.4S300,69.6,296.4,69.6z"/>
			<path d="M296.4,105.2h-63.2c-3.6,0-6.4,2.8-6.4,6.4c0,3.6,2.8,6.4,6.4,6.4h63.2c3.6,0,6.4-2.8,6.4-6.4
				C302.8,108,300,105.2,296.4,105.2z"/>
		</g>
	</g>
</g>
<g>
</g>
<g>
</g>
<g>
</g>
<g>
</g>
<g>
</g>
<g>
</g>
<g>
</g>
<g>
</g>
<g>
</g>
<g>
</g>
<g>
</g>
<g>
</g>
<g>
</g>
<g>
</g>
<g>
</g>
</svg>
