<?xml version="1.0" encoding="utf-8"?>
<!-- Generator: Adobe Illustrator 22.1.0, SVG Export Plug-In . SVG Version: 6.00 Build 0)  -->
<svg version="1.1" id="Layer_1" xmlns="http://www.w3.org/2000/svg" xmlns:xlink="http://www.w3.org/1999/xlink" x="0px" y="0px"
	 viewBox="0 0 938 938" style="enable-background:new 0 0 938 938;" xml:space="preserve">
<g>
	<circle cx="606.5" cy="331.5" r="51.6"/>
	<path d="M469,4C212.2,4,4,212.2,4,469s208.2,465,465,465s465-208.2,465-465S725.8,4,469,4z M554.9,572.1c-12.1,0-23.8-1.1-35.3-3.3
		l-25.8,29c-4.9,5.5-11.9,8.7-19.3,8.7h-40v43c0,14.2-11.5,25.8-25.8,25.8h-43v43c0,14.2-11.5,25.8-25.8,25.8H219.8
		c-14.2,0-25.8-11.5-25.8-25.8v-83.9c0-6.8,2.7-13.4,7.6-18.2l173.8-173.8c-6.1-18.6-9.5-38.6-9.5-59.3
		c0-104.4,84.6-189.1,189.1-189.1C659.7,194,744,278.3,744,383.1C744,487.5,659.4,572.1,554.9,572.1z"/>
</g>
</svg>
