<?xml version="1.0" encoding="utf-8"?>
<!-- Generator: Adobe Illustrator 22.1.0, SVG Export Plug-In . SVG Version: 6.00 Build 0)  -->
<svg version="1.1" id="Layer_1" xmlns="http://www.w3.org/2000/svg" xmlns:xlink="http://www.w3.org/1999/xlink" x="0px" y="0px"
	 viewBox="0 0 942 942" style="enable-background:new 0 0 942 942;" xml:space="preserve">
<g>
	<path d="M471,6C214.2,6,6,214.2,6,471s208.2,465,465,465s465-208.2,465-465S727.8,6,471,6z M695.7,460.3
		c-41.9,41.9-102.2,53.5-154.9,36l-224,224c-26.3,26.3-68.8,26.3-95.1,0s-26.3-68.8,0-95.1L445.9,401c-17.3-52.6-5.9-113,35.8-154.7
		c38.9-38.9,93.7-52.2,143.5-39.9c9.6,2.4,12.9,14.2,5.9,21.2L553,305.8l11.9,71.3l71.3,11.9l78.1-78.1c6.9-6.9,18.8-3.7,21.1,5.8
		C747.9,366.5,734.6,421.4,695.7,460.3z"/>
	<circle cx="269.3" cy="672.7" r="25.2"/>
</g>
</svg>
