<?xml version="1.0" standalone="no"?>
<!DOCTYPE svg PUBLIC "-//W3C//DTD SVG 20010904//EN"
 "http://www.w3.org/TR/2001/REC-SVG-20010904/DTD/svg10.dtd">
<svg version="1.0" xmlns="http://www.w3.org/2000/svg"
 width="886.000000pt" height="886.000000pt" viewBox="0 0 886.000000 886.000000"
 preserveAspectRatio="xMidYMid meet">
<metadata>
Created by potrace 1.11, written by Peter Selinger 2001-2013
</metadata>
<g transform="translate(0.000000,886.000000) scale(0.100000,-0.100000)"
fill="#000000" stroke="none">
<path d="M4327 8853 c-1 0 -58 -4 -127 -7 -69 -4 -145 -8 -170 -11 -25 -3 -67
-7 -95 -9 -68 -7 -129 -15 -198 -27 -32 -6 -70 -12 -85 -14 -119 -16 -434 -96
-623 -159 -182 -60 -549 -212 -594 -246 -5 -4 -44 -24 -85 -46 -251 -129 -575
-351 -828 -569 -110 -95 -380 -369 -473 -480 -136 -165 -306 -395 -290 -395 6
0 22 5 38 11 91 36 749 229 833 245 14 2 32 7 40 10 49 18 709 170 820 189 19
3 103 19 185 35 83 16 166 32 185 35 19 3 60 10 90 15 80 15 100 18 145 25 22
3 47 7 55 10 8 2 38 7 65 10 28 3 109 15 180 26 170 25 181 27 240 34 28 3 64
8 80 10 17 3 50 7 75 10 25 3 61 7 80 10 19 2 60 7 90 10 30 3 71 8 90 10 33
4 79 9 190 20 25 2 74 7 110 10 36 3 81 8 100 10 19 3 73 7 120 10 47 3 101 8
120 10 19 2 82 6 140 10 58 3 125 8 150 10 25 3 106 7 180 11 74 3 162 7 195
9 321 18 1136 24 1530 12 263 -9 490 -18 513 -22 28 -4 34 6 14 23 -11 10 -45
40 -77 67 -32 28 -63 55 -69 60 -6 6 -60 49 -121 97 -542 423 -1224 732 -1882
853 -16 3 -37 7 -48 9 -60 11 -200 32 -285 41 -30 3 -71 7 -90 10 -85 10 -506
25 -513 18z"/>
<path d="M4558 7235 c-2 -2 -69 -7 -148 -10 -80 -4 -165 -8 -190 -10 -25 -1
-99 -6 -165 -9 -66 -4 -138 -9 -160 -11 -22 -3 -71 -7 -110 -10 -103 -8 -195
-15 -240 -20 -22 -2 -71 -7 -110 -10 -38 -3 -83 -8 -100 -10 -16 -2 -61 -7
-100 -10 -38 -4 -81 -8 -95 -10 -14 -2 -50 -6 -80 -10 -133 -14 -134 -15 -168
-53 -58 -66 -150 -212 -183 -290 -121 -291 -110 -567 31 -807 138 -233 398
-389 735 -440 22 -4 119 -9 215 -12 l175 -5 -62 32 c-163 82 -280 303 -284
537 -2 123 17 209 68 303 42 78 72 112 133 148 62 37 172 39 242 4 55 -27 121
-88 165 -152 29 -43 80 -153 89 -192 2 -10 6 -28 9 -40 54 -246 -16 -489 -170
-593 -22 -15 -31 -25 -20 -22 11 4 32 9 48 12 61 12 75 15 132 35 345 119 657
371 966 780 64 85 180 256 217 321 11 19 43 75 72 124 55 95 200 386 200 402
0 5 -19 10 -42 12 -24 1 -59 5 -78 8 -39 5 -987 13 -992 8z"/>
<path d="M6147 7063 c-77 -240 -231 -526 -381 -708 -22 -27 -50 -61 -61 -75
-27 -33 -209 -216 -260 -260 -45 -40 -129 -105 -171 -135 -53 -36 -249 -239
-323 -335 -40 -52 -97 -131 -125 -175 -28 -45 -57 -90 -64 -100 -36 -57 -135
-273 -167 -365 -34 -98 -72 -245 -80 -315 -3 -16 -7 -52 -11 -80 -22 -166 2
-406 60 -608 26 -86 35 -109 102 -255 91 -199 287 -491 494 -737 169 -201 219
-254 450 -485 175 -175 266 -260 410 -386 25 -21 52 -45 60 -53 53 -51 252
-211 258 -207 4 2 57 7 117 11 61 3 124 8 140 10 17 2 62 7 100 10 39 3 88 8
110 10 22 3 87 9 145 15 213 21 292 29 330 35 14 2 52 6 85 10 64 6 118 12
175 20 19 3 60 7 90 10 30 3 66 7 80 10 14 2 54 7 90 11 36 3 73 8 82 9 9 2
48 7 85 10 153 16 140 8 218 132 78 124 88 141 190 338 180 350 320 755 400
1160 13 65 54 354 59 420 4 39 9 97 12 130 7 78 7 512 0 590 -4 33 -8 87 -11
120 -5 60 -7 71 -25 200 -16 120 -21 147 -41 250 -109 548 -319 1067 -621
1532 -58 90 -60 92 -111 103 -83 18 -379 78 -417 85 -19 3 -84 15 -145 26 -95
16 -154 26 -265 44 -14 2 -45 6 -70 10 -25 3 -58 8 -73 11 -16 3 -38 7 -50 9
-83 10 -135 17 -157 20 -31 5 -79 11 -190 25 -47 6 -98 12 -115 15 -16 2 -57
6 -90 10 -33 4 -70 8 -83 10 -12 2 -59 7 -105 10 l-82 6 -48 -148z"/>
<path d="M2197 6994 c-1 -1 -31 -4 -67 -8 -36 -3 -76 -8 -90 -11 -14 -2 -83
-13 -153 -25 -146 -23 -592 -111 -837 -166 -91 -20 -174 -37 -185 -39 -11 -2
-60 -13 -110 -25 -90 -22 -114 -28 -126 -29 -4 -1 -14 -16 -23 -33 -9 -18 -30
-55 -46 -83 -42 -72 -164 -321 -209 -428 -113 -267 -217 -610 -264 -867 -3
-14 -8 -36 -11 -50 -6 -27 -15 -83 -22 -140 -2 -19 -6 -46 -9 -60 -2 -14 -7
-52 -10 -85 -4 -33 -8 -70 -10 -83 -24 -147 -24 -671 -1 -857 2 -16 7 -59 11
-95 36 -334 148 -790 265 -1075 149 -366 303 -656 495 -930 46 -66 87 -125 92
-130 4 -6 44 -55 87 -110 43 -55 86 -105 94 -112 14 -12 104 -11 382 2 41 2
86 4 100 4 26 1 59 28 255 205 84 76 207 188 231 211 329 305 682 658 841 840
28 33 64 74 78 90 156 178 346 444 421 590 81 157 128 309 140 446 14 168 9
429 -10 533 -2 12 -9 50 -16 86 -27 148 -150 440 -213 508 -12 13 -91 76 -176
139 -343 258 -545 448 -724 681 -66 86 -148 244 -162 312 -2 8 -8 33 -13 55
-31 120 -32 294 -2 455 13 74 67 250 81 265 18 19 8 26 -36 24 -25 -2 -46 -4
-48 -5z"/>
<path d="M4035 3458 c-146 -58 -253 -188 -485 -588 -226 -391 -463 -764 -692
-1088 -59 -84 -108 -156 -108 -161 0 -4 35 -9 78 -11 161 -7 996 -5 1217 3
224 7 273 10 480 22 55 3 136 8 180 11 44 2 107 6 140 9 33 3 98 7 145 10 47
4 94 8 105 10 11 2 37 4 58 4 24 1 37 6 37 14 0 8 -18 51 -40 96 -22 45 -40
83 -40 85 0 2 -27 62 -61 132 -34 71 -81 172 -106 224 -68 144 -316 641 -379
760 -87 164 -174 306 -224 367 -85 106 -199 143 -305 101z"/>
<path d="M1330 1274 c0 -6 75 -77 154 -148 38 -33 74 -66 80 -71 22 -21 203
-162 271 -211 414 -301 896 -535 1385 -673 139 -39 349 -88 417 -97 18 -2 52
-8 75 -13 24 -5 50 -9 58 -9 8 0 27 -2 41 -5 15 -3 53 -8 85 -12 33 -3 73 -8
89 -10 213 -27 677 -25 930 5 50 6 108 13 130 15 22 3 51 7 65 10 14 2 40 7
58 10 272 43 609 137 887 247 133 52 346 148 366 165 8 7 20 13 25 13 8 0 157
82 289 160 190 111 533 371 698 529 32 31 63 58 68 59 5 2 9 10 9 18 0 9 -4
13 -8 10 -7 -4 -133 -14 -277 -21 -217 -11 -327 -16 -375 -20 -30 -3 -122 -7
-205 -10 -82 -3 -184 -8 -225 -10 -114 -7 -525 -21 -885 -30 -972 -25 -2216
-17 -2900 19 -49 3 -148 8 -220 11 -71 3 -161 7 -200 10 -38 2 -115 7 -170 10
-132 8 -215 14 -300 20 -38 3 -97 8 -130 10 -33 3 -91 7 -130 11 -125 10 -155
12 -155 8z"/>
</g>
</svg>
