<svg xmlns="http://www.w3.org/2000/svg" viewBox="0 0 116 116"><defs><style>.cls-1{fill:#fff;}.cls-2{fill:#b61c16;}</style></defs><title>Asset 4</title><g id="Layer_2" data-name="Layer 2"><g id="Layer_3" data-name="Layer 3"><path class="cls-1" d="M58,0a58,58,0,1,0,58,58A58,58,0,0,0,58,0Z"/><path class="cls-2" d="M58,0a58,58,0,1,0,58,58A58,58,0,0,0,58,0Z"/><path class="cls-1" d="M55.25,92.23c-20.24-29.35-24-32.36-24-43.15a26.75,26.75,0,0,1,53.5,0c0,10.79-3.76,13.8-24,43.15a3.35,3.35,0,0,1-5.5,0Zm2.75-32A11.15,11.15,0,1,0,46.85,49.08,11.15,11.15,0,0,0,58,60.23Z"/></g></g></svg>