<svg xmlns="http://www.w3.org/2000/svg" viewBox="0 0 116 116"><defs><style>.cls-1{fill:#b61c16;}.cls-2{fill:#fff;}</style></defs><title>Asset 2</title><g id="Layer_2" data-name="Layer 2"><g id="Layer_3" data-name="Layer 3"><path class="cls-1" d="M58,0a58,58,0,1,0,58,58A58,58,0,0,0,58,0Z"/><path class="cls-2" d="M95.2,48.15a.91.91,0,0,1,1.47.71V79.75A7.26,7.26,0,0,1,89.42,87H26.58a7.26,7.26,0,0,1-7.25-7.25V48.88a.9.9,0,0,1,1.47-.71c3.38,2.63,7.87,6,23.27,17.16,3.19,2.32,8.57,7.22,13.93,7.19s10.88-5,13.94-7.19C87.35,54.13,91.82,50.78,95.2,48.15ZM58,67.67c3.5.06,8.55-4.41,11.09-6.26C89.13,46.87,90.66,45.6,95.28,42a3.62,3.62,0,0,0,1.39-2.85V36.25A7.26,7.26,0,0,0,89.42,29H26.58a7.26,7.26,0,0,0-7.25,7.25v2.87A3.64,3.64,0,0,0,20.72,42c4.62,3.61,6.15,4.9,26.19,19.44,2.54,1.85,7.59,6.32,11.09,6.26Z"/></g></g></svg>