<svg xmlns="http://www.w3.org/2000/svg" viewBox="0 0 116 116"><defs><style>.cls-1{fill:#b61c16;}.cls-2{fill:#fff;}</style></defs><title>Asset 3</title><g id="Layer_2" data-name="Layer 2"><g id="Layer_3" data-name="Layer 3"><path class="cls-1" d="M58,0a58,58,0,1,0,58,58A58,58,0,0,0,58,0Z"/><path class="cls-2" d="M92.25,24.62l-15-3.46a3.48,3.48,0,0,0-4,2L66.35,39.32a3.46,3.46,0,0,0,1,4l8.74,7.15A53.48,53.48,0,0,1,50.53,76.08l-7.16-8.75a3.46,3.46,0,0,0-4-1L23.18,73.26a3.5,3.5,0,0,0-2,4l3.46,15A3.45,3.45,0,0,0,28,94.93,66.93,66.93,0,0,0,94.93,28,3.46,3.46,0,0,0,92.25,24.62Z"/></g></g></svg>