<svg id="Layer_1" xmlns="http://www.w3.org/2000/svg" viewBox="0 0 100 100"><style>.st1{fill:#b61c16}</style><path class="st1" d="M27.5 53.5h2.7v2.7c0 .5.4.8.8.8h2.1c.5 0 .8-.4.8-.8v-2.7h2.7c.5 0 .8-.4.8-.8v-2.1c0-.5-.4-.8-.8-.8h-2.7V47c0-.5-.4-.8-.8-.8H31c-.5 0-.8.4-.8.8v2.7h-2.7c-.5 0-.8.4-.8.8v2.1c0 .5.3.9.8.9zM64.2 53.5h8.3c.5 0 .9-.4.9-.9v-2c0-.5-.4-.9-.9-.9h-8.3c-.5 0-.9.4-.9.9v2c0 .5.4.9.9.9z"/><path class="st1" d="M50 0a50 50 0 1 0 0 100A50 50 0 0 0 50 0zm30.9 70.6c0 1-.8 1.8-1.8 1.8H20.9c-1 0-1.8-.8-1.8-1.8V40.5h61.7l.1 30.1zm3.7-33.7c0 .9-.8 1.7-1.7 1.7H17c-.9 0-1.7-.8-1.7-1.7v-2.8c0-.9.8-1.7 1.7-1.7h10v-3.1c0-.9.8-1.7 1.7-1.7H36c.9 0 1.7.8 1.7 1.7v3.1H63v-3.1c0-.9.8-1.7 1.7-1.7h7.2c.9 0 1.7.8 1.7 1.7v3.1H83c.9 0 1.7.8 1.7 1.7l-.1 2.8z"/></svg>