<svg xmlns="http://www.w3.org/2000/svg" version="1" viewBox="0 0 512 512"><path fill="#898890" d="M493 209v81h-49c-5 25-15 47-28 67l26 26-16 2-96-96c6-12 9-25 9-40a88 88 0 1 0-49 80l95 95c-2 4-3 9-3 14l-23-23c-21 13-43 23-67 28v48h-82v-48c-24-5-47-15-67-28l-34 34-58-57 34-35c-13-20-22-42-28-67H9v-81h48c6-25 15-47 28-67l-34-35 58-58 34 35c20-13 43-23 67-28V7h82v49c24 5 46 15 67 28l34-35 58 58-35 35c13 20 23 42 28 67h49z"/><g fill="#57565c"><path d="M290 329l95 95c-2 4-3 9-3 14l-23-23c-21 13-43 23-67 28v48h-41V338c14 0 27-3 39-9zM493 209v81h-49c-5 25-15 47-28 67l26 26-16 2-96-96c6-12 9-25 9-40 0-48-39-88-88-88V7h41v49c24 5 46 15 67 28l34-35 58 58-35 35c13 20 23 42 28 67h49z"/></g><path fill="#fed322" d="M433 434l-7 26 39 40a61 61 0 0 1-80-76L274 313a61 61 0 0 1-72-82l39 40 27-7 7-26-40-40a61 61 0 0 1 80 76l111 111a61 61 0 0 1 73 82l-40-40-26 7z"/><path fill="#f91" d="M465 500a61 61 0 0 1-80-76L274 313a61 61 0 0 1-72-82l39 40 27-7 165 170-7 26 39 40z"/><g fill="#fff"><path d="M313 307l10 11M337 331l35 35"/></g><path fill="#020202" d="M491 395a68 68 0 0 0-46-20l-19-19c11-18 19-38 24-58h50v-97h-50c-5-21-13-40-24-58l35-36-68-68-36 35c-18-11-37-19-58-24V0h-97v50c-20 5-40 13-58 24l-35-35-69 68 36 36c-11 18-20 37-25 58H1v97h50c5 20 14 40 25 58l-36 36 69 68 35-35c18 11 38 19 58 24v50h97v-50c21-5 40-13 58-24l17 16a69 69 0 0 0 68 71c9 0 18-2 26-5l11-4-45-45 5-18 18-5 44 45 5-11c10-25 4-54-15-74zM266 240l-4 18-18 5-45-45-4 10a68 68 0 0 0 77 93l5 5a81 81 0 1 1 51-50l-4-4c6-23 0-49-18-66a68 68 0 0 0-74-15l-10 4 44 45zm88 169c-19 13-41 22-64 26l-6 2v47h-67v-47l-6-2c-23-4-44-13-64-26l-5-4-33 34-48-47 34-34-4-5c-12-20-21-41-26-64l-1-6H16v-67h48l1-6c5-23 14-45 26-64l4-5-34-34 48-47 33 33 5-3c20-13 41-22 64-27l6-1V15h67v47l6 1c23 5 45 14 64 27l6 3 33-33 47 47-33 34 3 5c13 19 22 41 27 64l1 6h47v67h-47l-1 6c-5 23-14 44-27 64l-2 3-62-62-7-7a96 96 0 1 0-51 50l68 69 1 1-3 2zm141 43l-34-33-34 9-10 35 34 33a53 53 0 0 1-61-60v-1a54 54 0 0 1 1-6l1-3c1-2 7-13 15-22l-11-10-13 17-49-49-42-42-16-15-4 1a53 53 0 0 1-67-60l34 33 35-9 9-35-34-33a53 53 0 0 1 59 70l-1 4c-2 3-5 9-10 13l11 11 10-13 106 106 4-1 4-1h7a53 53 0 0 1 56 61z"/><g fill="#fff"><path d="M317 301l11 11-11 11-10-11zM342 325l36 36-11 11-36-36zM288 382l4 15 18-7-6-14c-5 3-11 5-16 6zM251 387a137 137 0 0 1-135-160l-15-2-2 25a152 152 0 0 0 167 152l-2-15h-13zM156 152l-10-11c-5 4-9 8-12 13l11 9 11-11zM251 114c16 0 32 2 47 8l5-14a151 151 0 0 0-144 21l9 12c24-18 53-27 83-27z"/></g></svg>