<svg xmlns="http://www.w3.org/2000/svg" viewBox="0 0 512 512"><path fill="#ffc084" d="M150.25 7.85h206.27v206.27H150.25z"/><path fill="#ff8564" d="M318.65 360.7v-57.94H188.12v57.93a59.07 59.07 0 0 1 38.84 55.5h52.84a59.07 59.07 0 0 1 38.85-55.5z"/><circle cx="253.38" cy="110.99" r="69.44" fill="#fff"/><path d="M213.66 324.43h79.44v15.71h-79.44zM330.67 110.99c0-42.62-34.67-77.3-77.29-77.3S176.1 68.38 176.1 111s34.67 77.29 77.3 77.29c42.61 0 77.28-34.68 77.28-77.3zm-138.87 0c0-33.96 27.62-61.59 61.58-61.59s61.59 27.63 61.59 61.59-27.63 61.58-61.59 61.58-61.58-27.63-61.58-61.58z"/><path d="M261.24 424.05h26.41v-7.85a51.37 51.37 0 0 1 33.68-48.13l5.17-1.88v-71.28h-31.08v-53.53h-15.7v53.53h-52.67v-53.53h-15.7v53.53h-31.09v71.28l5.17 1.88a51.36 51.36 0 0 1 33.68 48.13v7.85h26.42V512h89.52v-15.7h-73.81v-72.25zm-65.27-68.6V310.6h114.82v44.84a67.2 67.2 0 0 0-38.38 52.9h-38.06a67.2 67.2 0 0 0-38.38-52.9zM353.9 496.29h15.71V512H353.9zM142.4 102.87h15.71v15.71H142.4z"/><path d="M364.37 0H142.4v84.55h15.7V15.7h190.56v190.56H158.1v-68.85h-15.7v84.55h221.97z"/><circle cx="224.59" cy="110.99" r="11.31"/><circle cx="282.18" cy="110.99" r="11.31"/></svg>