<svg xmlns="http://www.w3.org/2000/svg" version="1" viewBox="0 0 512 512"><g fill="#ffc853"><path d="M248 160h101v61H248zM406 38c-34 0-64-11-88-30H112v35l152 76v41h71v-41c0-39 31-81 71-81z"/></g><path fill="#5fccc7" d="M167 342h264v162H167z"/><path fill="#dba34b" d="M248 200h101v20H248z"/><path fill="#4da39b" d="M167 484h264v20H167z"/><path fill="#fff" d="M241 41h-15V25h15v16zm-30 0h-61V25h61v16z"/><path fill="#dba34b" d="M363 32a86 86 0 0 0-49 76v31h-50v21h71v-41c0-39 31-81 71-81-15 0-30-2-43-6z"/><path d="M357 213v-61h-15v-33c0-34 28-73 64-73V30c-31 0-60-10-84-28l-2-2H104v48l152 76v28h-15v61c-46 4-81 42-81 89v210h278V302c0-47-35-85-81-89zM119 38V15h196c17 13 35 21 54 26a96 96 0 0 0-42 78v33h-56v-38L119 38zm137 129h86v46h-86v-46zm167 330H175V350h248v147zM175 335v-33c0-41 33-74 73-74h102c40 0 73 33 73 74v33H175zM74 1h15v47H74z"/><path d="M184 107l-7-14-48 25 10-40-14-4-40 158 15 4 24-98zM200 467h15v15h-15zM200 406h15v15h-15zM200 436h15v15h-15zM332 365h15v15h-15zM332 396h15v15h-15zM332 426h15v15h-15zM271 457h15v15h-15zM271 396h15v15h-15zM271 426h15v15h-15zM383 426h15v15h-15zM383 457h15v15h-15zM383 396h15v15h-15z"/></svg>