<svg id="Layer_1" xmlns="http://www.w3.org/2000/svg" viewBox="0 0 692 111"><style>.st1{enable-background:new}.st2{fill:#6b0300}.st3{fill:#b61c16}</style><path d="M640.7 111.2H14.4A14 14 0 0 1 1.6 91.5l36.9-83A14 14 0 0 1 51.3.2h626.3a14 14 0 0 1 12.8 19.7l-36.9 83c-2.3 5-7.3 8.3-12.8 8.3z" fill="#fff"/><g class="st1"><path class="st2" d="M135 56.9l.1 33.1h-8.2l-.3-77.5 28.9-.1a22.7 22.7 0 0 1 15.7 6.4c2 2 3.6 4.3 4.8 7a22.9 22.9 0 0 1-4.6 24.5 22.8 22.8 0 0 1-15.6 6.5l-20.8.1zm-.1-8.2l20.7-.1a14 14 0 0 0 9.8-4.1 14 14 0 0 0 3-15.2c-.7-1.7-1.7-3.2-3-4.4a13.2 13.2 0 0 0-4.4-3c-1.7-.8-3.5-1.1-5.4-1.1l-20.7.1v27.8zM182.4 89.9l-.3-77.5h7.8l.3 77.5h-7.8zM232.1 89.7v-5.9a12.2 12.2 0 0 1-3.7 3.5 18.6 18.6 0 0 1-9.2 2.9l-5.5.2c-2.7 0-5.3-.3-7.6-1s-4.4-1.6-6.1-3a15 15 0 0 1-4.1-4.9c-1-2-1.5-4.2-1.5-6.8 0-3.1.5-5.8 1.7-8.1 1.1-2.3 2.7-4.2 4.6-5.7 2-1.5 4.2-2.7 6.8-3.4 2.6-.7 5.3-1.1 8.2-1.1 3 0 5.8.1 8.5.3 2.7.2 5.3.8 7.7 1.6v-4.5c0-4.2-1.3-7.4-4-9.7a16 16 0 0 0-10.9-3.3c-3 0-5.4.4-7.5 1.1-2 .7-4 2.3-6 4.8l-5.4-4.6c2.4-2.8 5-4.9 8.1-6.2a32.6 32.6 0 0 1 20.2-.8c2.7.8 5.1 2 7 3.6a16 16 0 0 1 4.6 6c1.1 2.4 1.6 5.1 1.6 8.2l.2 36.9-7.7-.1zm-.1-24.1c-2.3-1-4.7-1.6-7.2-1.8a64.3 64.3 0 0 0-13 .3c-1.8.3-3.4.9-4.8 1.7a10 10 0 0 0-3.5 3.3 9.7 9.7 0 0 0-1.3 5.3 8 8 0 0 0 3.5 7c2.3 1.5 5.6 2.3 9.7 2.3a23 23 0 0 0 9.5-1.9c2.9-1.2 5.3-3.4 7.2-6.5l-.1-9.7zM249 40.8h-5v-6.9h5l-.1-13.1h7.8l.1 13.1h9.7v6.9h-9.7l.1 28c0 1.9.1 3.7.3 5.4.2 1.7.5 3.2 1.1 4.6a8 8 0 0 0 2.2 3.3c1 .8 2.2 1.3 3.8 1.4.8.1 1.6 0 2.2-.1l1.9-.4 1 6.3c-4 .8-7.3.8-9.9-.1-2.6-.9-4.7-2.3-6.2-4.2-1.6-2-2.6-4.3-3.2-7.1-.6-2.8-.9-5.8-.9-8.9l-.2-28.2zM311.3 89.3v-5.9a12.2 12.2 0 0 1-3.7 3.5 18.6 18.6 0 0 1-9.2 2.9l-5.5.2c-2.7 0-5.3-.3-7.6-1s-4.4-1.6-6.1-3a15 15 0 0 1-4.1-4.9c-1-2-1.5-4.2-1.5-6.8 0-3.1.5-5.8 1.7-8.1 1.1-2.3 2.7-4.2 4.6-5.7 2-1.5 4.2-2.7 6.8-3.4 2.6-.7 5.3-1.1 8.2-1.1 3 0 5.8.1 8.5.3 2.7.2 5.3.8 7.7 1.6v-4.5c0-4.2-1.3-7.4-4-9.7a16 16 0 0 0-10.9-3.3c-3 0-5.4.4-7.5 1.1-2 .7-4 2.3-6 4.8l-5.4-4.6c2.4-2.8 5-4.9 8.1-6.2a32.6 32.6 0 0 1 20.2-.8c2.7.8 5.1 2 7 3.6a16 16 0 0 1 4.6 6c1.1 2.4 1.6 5.1 1.6 8.2l.2 36.9-7.7-.1zm-.1-24c-2.3-1-4.7-1.6-7.2-1.8a64.3 64.3 0 0 0-13 .3c-1.8.3-3.4.9-4.8 1.7a10 10 0 0 0-3.5 3.3 9.7 9.7 0 0 0-1.3 5.3 8 8 0 0 0 3.5 7c2.3 1.5 5.6 2.3 9.7 2.3a23 23 0 0 0 9.5-1.9c2.9-1.2 5.3-3.4 7.2-6.5l-.1-9.7zM328.2 32.3c0-3.1.3-6.1.8-8.9a17 17 0 0 1 3.2-7.2c1.5-2 3.6-3.4 6.2-4.2 2.6-.9 5.9-.9 9.9-.2l-1 6.3-1.9-.4a8 8 0 0 0-2.2 0c-1.5.2-2.8.6-3.8 1.5-1 .8-1.7 1.9-2.2 3.3a46.3 46.3 0 0 0-1.3 10.1v1.2h9.7v6.9h-9.7l.2 48.6h-7.8l-.2-48.6h-5v-6.9h5l.1-1.5zM404.6 61.6c0 4-.5 7.7-1.6 11.1a27.8 27.8 0 0 1-4.8 9 20.5 20.5 0 0 1-8.1 6c-3.2 1.5-7 2.2-11.4 2.2s-8.1-.7-11.4-2.2-5.9-3.5-8.1-6.1a25.8 25.8 0 0 1-4.9-9.1 40.3 40.3 0 0 1-.1-22.2 26 26 0 0 1 4.8-9c2.1-2.6 4.8-4.6 8-6 3.2-1.5 7-2.2 11.3-2.2 4.4 0 8.2.7 11.4 2.2 3.3 1.5 6 3.5 8.1 6.1 2.2 2.6 3.8 5.6 4.9 9.1 1.4 3.4 1.9 7.1 1.9 11.1zm-8.2-.1c0-3.2-.4-6.1-1-8.8-.7-2.7-1.7-5-3.1-7s-3.2-3.5-5.5-4.7c-2.3-1.1-5-1.7-8.1-1.7a18 18 0 0 0-8.1 1.7 15 15 0 0 0-5.4 4.6c-1.4 2-2.4 4.3-3.1 7a40 40 0 0 0 0 17.6c.7 2.7 1.7 5.1 3.1 7.1 1.4 2 3.2 3.6 5.4 4.7a18 18 0 0 0 8.1 1.7 18 18 0 0 0 8.1-1.7c2.2-1.1 4.1-2.7 5.5-4.7 1.4-2 2.4-4.3 3.1-7 .7-2.7 1-5.6 1-8.8zM440.5 40.6a25.3 25.3 0 0 0-7.2-1.2c-2.1 0-4.1.4-5.8 1.3-1.7.9-3.3 1.9-4.6 3.2a23 23 0 0 0-3.5 4.2l-2.6 4.1.2 36.7h-7.8l-.2-55.4h7.8v7.4a22.2 22.2 0 0 1 18.3-8.6l3.9.2c1.3.1 2.6.4 3.7.6l-2.2 7.5z"/></g><g class="st1"><path class="st3" d="M524.6 88.4l-.1-35.4c0-4.7-1.4-8.1-4.2-10.4a16.2 16.2 0 0 0-16.5-2.2c-1.8.9-3.3 1.9-4.6 3.2a21.8 21.8 0 0 0-3.3 4.2l-2.5 4.1.2 36.7H486l-.1-35.5c0-4.7-1.4-8.1-4.2-10.5a15 15 0 0 0-10.3-3.4c-2.1 0-4.1.4-5.8 1.3-1.7.9-3.3 1.9-4.6 3.2a23 23 0 0 0-3.5 4.2l-2.6 4.1.2 36.7h-7.8l-.3-55.4h7.8v7.5a22.2 22.2 0 0 1 18.3-8.6c4.1 0 7.8.8 11.1 2.6 3.3 1.7 5.7 4.3 7.3 7.8l3.3-3.5a25.6 25.6 0 0 1 10-6 25.6 25.6 0 0 1 14.9.2 17.5 17.5 0 0 1 10.9 9.8 20 20 0 0 1 1.6 8.4l.2 37-7.8-.1zM574.3 88.2v-5.9a12.2 12.2 0 0 1-3.7 3.5 18.6 18.6 0 0 1-9.2 2.9l-5.5.2c-2.7 0-5.3-.3-7.6-1s-4.4-1.6-6.1-3a15 15 0 0 1-4.1-4.9c-1-2-1.5-4.2-1.5-6.8 0-3.1.5-5.8 1.7-8.1 1.1-2.3 2.7-4.2 4.6-5.7 2-1.5 4.2-2.7 6.8-3.4 2.6-.7 5.3-1.1 8.2-1.1 3 0 5.8.1 8.5.3 2.7.2 5.3.8 7.7 1.6v-4.5c0-4.2-1.3-7.4-4-9.7a16 16 0 0 0-10.9-3.3c-3 0-5.4.4-7.5 1.1-2 .7-4 2.3-6 4.8l-5.4-4.6c2.4-2.8 5-4.9 8.1-6.2a32.6 32.6 0 0 1 20.2-.8c2.7.8 5.1 2 7 3.6a16 16 0 0 1 4.6 6c1.1 2.4 1.6 5.1 1.6 8.2l.2 36.9-7.7-.1zm-.1-24c-2.3-1-4.7-1.6-7.2-1.8a64.3 64.3 0 0 0-13 .3c-1.8.3-3.4.9-4.8 1.7a10 10 0 0 0-3.5 3.3 9.7 9.7 0 0 0-1.3 5.3 8 8 0 0 0 3.5 7c2.3 1.5 5.6 2.3 9.7 2.3a23 23 0 0 0 9.5-1.9c2.9-1.2 5.3-3.4 7.2-6.5l-.1-9.7zM620.5 45.7a19.4 19.4 0 0 0-6-5.3 16.5 16.5 0 0 0-7.7-1.7c-3.8 0-6.4.7-7.9 2.1a6.6 6.6 0 0 0-2.2 5.3c0 1.5.4 2.7 1.1 3.8.7 1 1.6 1.9 2.8 2.6 1.1.7 2.5 1.4 4 1.9l4.7 1.6 6 2.1c2 .8 3.8 1.8 5.5 3 1.7 1.3 3 2.8 4.1 4.6a14 14 0 0 1 1.6 6.8 14.8 14.8 0 0 1-5.7 11.9 19 19 0 0 1-6.2 3.1 28.3 28.3 0 0 1-18.9-1 26 26 0 0 1-9.2-7.1l5.7-5.3c3.9 5.2 8.9 7.7 15 7.7 4 0 6.9-.8 8.9-2.4a7.2 7.2 0 0 0 2.9-5.7c0-1.7-.4-3.1-1.1-4.3a10 10 0 0 0-2.9-2.9c-1.2-.8-2.6-1.5-4.2-2l-5-1.6c-2-.6-4-1.2-5.9-2-2-.7-3.7-1.7-5.3-2.8s-2.8-2.6-3.8-4.4c-1-1.8-1.5-4-1.5-6.8 0-4.9 1.7-8.6 5-11.3 3.4-2.7 7.8-4 13.2-4 3.8 0 7.3.6 10.3 2 3 1.3 5.9 3.6 8.6 6.9l-5.4 5.2h-.5z"/></g><path class="st3" d="M85.5 74.6V58H68.8c-3 0-5.5-2.4-5.5-5.5 0-3 2.4-5.5 5.5-5.5h16.6l-.1-16.9c0-3 2.4-5.5 5.5-5.5 3 0 5.5 2.4 5.5 5.5l.1 16.9 16.9-.1c3 0 5.5 2.4 5.5 5.5 0 3-2.4 5.5-5.5 5.5l-16.9.1.1 16.6c0 3-2.4 5.5-5.5 5.5-3 0-5.5-2.4-5.5-5.5z"/></svg>
