<?xml version="1.0" encoding="utf-8"?>
<!-- Generator: Adobe Illustrator 22.1.0, SVG Export Plug-In . SVG Version: 6.00 Build 0)  -->
<svg version="1.1" id="Layer_1" xmlns="http://www.w3.org/2000/svg" xmlns:xlink="http://www.w3.org/1999/xlink" x="0px" y="0px"
	 viewBox="0 0 692 111" style="enable-background:new 0 0 692 111;" xml:space="preserve">
<style type="text/css">
	.st0{fill:#FFFFFF;}
	.st1{enable-background:new    ;}
	.st2{fill:#6B0300;}
	.st3{fill:#B61C16;}
</style>
<path class="st0" d="M640.7,111.2H14.4c-10.2,0-16.9-10.5-12.8-19.7l36.9-83c2.3-5.1,7.3-8.3,12.8-8.3h626.3
	c10.2,0,16.9,10.5,12.8,19.7l-36.9,83C651.2,107.9,646.2,111.2,640.7,111.2z"/>
<g>
	<g class="st1">
		<path class="st2" d="M135,56.9l0.1,33.1l-8.2,0l-0.3-77.5l28.9-0.1c3,0,5.9,0.6,8.6,1.7c2.7,1.2,5.1,2.7,7.1,4.7
			c2,2,3.6,4.3,4.8,7c1.2,2.7,1.8,5.6,1.8,8.7c0,3.1-0.6,6-1.7,8.7c-1.2,2.7-2.7,5.1-4.7,7.1c-2,2-4.3,3.6-7,4.7
			c-2.7,1.2-5.6,1.7-8.6,1.8L135,56.9z M134.9,48.7l20.7-0.1c1.9,0,3.7-0.4,5.4-1.1c1.7-0.7,3.2-1.7,4.4-3c1.3-1.3,2.2-2.7,3-4.4
			c0.7-1.7,1.1-3.5,1.1-5.4c0-1.9-0.4-3.7-1.1-5.4c-0.7-1.7-1.7-3.2-3-4.4c-1.3-1.3-2.7-2.3-4.4-3c-1.7-0.8-3.5-1.1-5.4-1.1
			l-20.7,0.1L134.9,48.7z"/>
		<path class="st2" d="M182.4,89.9l-0.3-77.5l7.8,0l0.3,77.5L182.4,89.9z"/>
		<path class="st2" d="M232.1,89.7l0-5.9c-1.1,1.5-2.3,2.7-3.7,3.5c-1.4,0.9-2.8,1.5-4.3,2c-1.5,0.4-3.1,0.7-4.9,0.9
			c-1.7,0.1-3.6,0.2-5.5,0.2c-2.7,0-5.3-0.3-7.6-1c-2.3-0.7-4.4-1.6-6.1-3c-1.7-1.3-3.1-3-4.1-4.9c-1-2-1.5-4.2-1.5-6.8
			c0-3.1,0.5-5.8,1.7-8.1c1.1-2.3,2.7-4.2,4.6-5.7c2-1.5,4.2-2.7,6.8-3.4c2.6-0.7,5.3-1.1,8.2-1.1c3,0,5.8,0.1,8.5,0.3
			c2.7,0.2,5.3,0.8,7.7,1.6l0-4.5c0-4.2-1.3-7.4-4-9.7c-2.6-2.2-6.3-3.4-10.9-3.3c-3,0-5.4,0.4-7.5,1.1c-2,0.7-4,2.3-6,4.8l-5.4-4.6
			c2.4-2.8,5-4.9,8.1-6.2c3-1.3,6.8-2,11.2-2c3.2,0,6.2,0.4,9,1.2c2.7,0.8,5.1,2,7,3.6c2,1.6,3.5,3.6,4.6,6c1.1,2.4,1.6,5.1,1.6,8.2
			l0.2,36.9L232.1,89.7z M232,65.6c-2.3-1-4.7-1.6-7.2-1.8c-2.5-0.2-5.1-0.3-7.6-0.2c-1.8,0-3.7,0.2-5.4,0.5
			c-1.8,0.3-3.4,0.9-4.8,1.7c-1.4,0.8-2.6,1.9-3.5,3.3c-0.9,1.4-1.3,3.2-1.3,5.3c0,3.1,1.2,5.4,3.5,7c2.3,1.5,5.6,2.3,9.7,2.3
			c3.4,0,6.6-0.6,9.5-1.9c2.9-1.2,5.3-3.4,7.2-6.5L232,65.6z"/>
		<path class="st2" d="M249,40.8l-5,0l0-6.9l5,0l-0.1-13.1l7.8,0l0.1,13.1l9.7,0l0,6.9l-9.7,0l0.1,28c0,1.9,0.1,3.7,0.3,5.4
			c0.2,1.7,0.5,3.2,1.1,4.6c0.5,1.4,1.3,2.5,2.2,3.3c1,0.8,2.2,1.3,3.8,1.4c0.8,0.1,1.6,0,2.2-0.1c0.7-0.1,1.3-0.2,1.9-0.4l1,6.3
			c-4,0.8-7.3,0.8-9.9-0.1c-2.6-0.9-4.7-2.3-6.2-4.2c-1.6-2-2.6-4.3-3.2-7.1c-0.6-2.8-0.9-5.8-0.9-8.9L249,40.8z"/>
		<path class="st2" d="M311.3,89.3l0-5.9c-1.1,1.5-2.3,2.7-3.7,3.5c-1.4,0.9-2.8,1.5-4.3,2c-1.5,0.4-3.1,0.7-4.9,0.9
			c-1.7,0.1-3.6,0.2-5.5,0.2c-2.7,0-5.3-0.3-7.6-1c-2.3-0.7-4.4-1.6-6.1-3c-1.7-1.3-3.1-3-4.1-4.9c-1-2-1.5-4.2-1.5-6.8
			c0-3.1,0.5-5.8,1.7-8.1c1.1-2.3,2.7-4.2,4.6-5.7c2-1.5,4.2-2.7,6.8-3.4c2.6-0.7,5.3-1.1,8.2-1.1c3,0,5.8,0.1,8.5,0.3
			c2.7,0.2,5.3,0.8,7.7,1.6l0-4.5c0-4.2-1.3-7.4-4-9.7c-2.6-2.2-6.3-3.4-10.9-3.3c-3,0-5.4,0.4-7.5,1.1c-2,0.7-4,2.3-6,4.8l-5.4-4.6
			c2.4-2.8,5-4.9,8.1-6.2c3-1.3,6.8-2,11.2-2c3.2,0,6.2,0.4,9,1.2c2.7,0.8,5.1,2,7,3.6c2,1.6,3.5,3.6,4.6,6c1.1,2.4,1.6,5.1,1.6,8.2
			l0.2,36.9L311.3,89.3z M311.2,65.3c-2.3-1-4.7-1.6-7.2-1.8c-2.5-0.2-5.1-0.3-7.6-0.2c-1.8,0-3.7,0.2-5.4,0.5
			c-1.8,0.3-3.4,0.9-4.8,1.7c-1.4,0.8-2.6,1.9-3.5,3.3c-0.9,1.4-1.3,3.2-1.3,5.3c0,3.1,1.2,5.4,3.5,7c2.3,1.5,5.6,2.3,9.7,2.3
			c3.4,0,6.6-0.6,9.5-1.9c2.9-1.2,5.3-3.4,7.2-6.5L311.2,65.3z"/>
		<path class="st2" d="M328.2,32.3c0-3.1,0.3-6.1,0.8-8.9c0.6-2.8,1.6-5.2,3.2-7.2c1.5-2,3.6-3.4,6.2-4.2c2.6-0.9,5.9-0.9,9.9-0.2
			l-1,6.3c-0.6-0.1-1.2-0.3-1.9-0.4c-0.7-0.1-1.4-0.1-2.2,0c-1.5,0.2-2.8,0.6-3.8,1.5c-1,0.8-1.7,1.9-2.2,3.3
			c-0.5,1.4-0.9,2.9-1,4.7c-0.2,1.7-0.3,3.5-0.3,5.4l0,1.2l9.7,0l0,6.9l-9.7,0l0.2,48.6l-7.8,0l-0.2-48.6l-5,0l0-6.9l5,0L328.2,32.3
			z"/>
		<path class="st2" d="M404.6,61.6c0,4-0.5,7.7-1.6,11.1c-1.1,3.4-2.7,6.4-4.8,9c-2.1,2.6-4.8,4.6-8.1,6c-3.2,1.5-7,2.2-11.4,2.2
			c-4.4,0-8.1-0.7-11.4-2.2s-5.9-3.5-8.1-6.1c-2.2-2.6-3.8-5.6-4.9-9.1c-1.1-3.5-1.6-7.2-1.7-11.1c0-4,0.5-7.7,1.6-11.1
			c1.1-3.4,2.6-6.4,4.8-9c2.1-2.6,4.8-4.6,8-6c3.2-1.5,7-2.2,11.3-2.2c4.4,0,8.2,0.7,11.4,2.2c3.3,1.5,6,3.5,8.1,6.1
			c2.2,2.6,3.8,5.6,4.9,9.1C404.1,53.9,404.6,57.6,404.6,61.6z M396.4,61.5c0-3.2-0.4-6.1-1-8.8c-0.7-2.7-1.7-5-3.1-7
			s-3.2-3.5-5.5-4.7c-2.3-1.1-5-1.7-8.1-1.7c-3.2,0-5.9,0.6-8.1,1.7c-2.2,1.1-4,2.7-5.4,4.6c-1.4,2-2.4,4.3-3.1,7
			c-0.7,2.7-1,5.7-1,8.9c0,3.1,0.4,6,1,8.7c0.7,2.7,1.7,5.1,3.1,7.1c1.4,2,3.2,3.6,5.4,4.7c2.2,1.1,4.9,1.7,8.1,1.7
			c3.2,0,5.9-0.6,8.1-1.7c2.2-1.1,4.1-2.7,5.5-4.7c1.4-2,2.4-4.3,3.1-7C396.1,67.6,396.4,64.7,396.4,61.5z"/>
		<path class="st2" d="M440.5,40.6c-1-0.4-2.1-0.7-3.4-0.9c-1.3-0.2-2.6-0.3-3.8-0.3c-2.1,0-4.1,0.4-5.8,1.3
			c-1.7,0.9-3.3,1.9-4.6,3.2c-1.4,1.3-2.5,2.7-3.5,4.2c-1,1.5-1.9,2.9-2.6,4.1l0.2,36.7l-7.8,0l-0.2-55.4l7.8,0l0,7.4
			c1.8-2.4,4.2-4.4,7.2-6.1c3-1.7,6.7-2.5,11.1-2.5c1.3,0,2.5,0.1,3.9,0.2c1.3,0.1,2.6,0.4,3.7,0.6L440.5,40.6z"/>
	</g>
	<g class="st1">
		<path class="st3" d="M524.6,88.4L524.5,53c0-4.7-1.4-8.1-4.2-10.4c-2.8-2.3-6.2-3.4-10.3-3.5c-2.4,0-4.4,0.4-6.2,1.3
			c-1.8,0.9-3.3,1.9-4.6,3.2c-1.3,1.3-2.4,2.7-3.3,4.2c-0.9,1.5-1.7,2.9-2.5,4.1l0.2,36.7l-7.6,0l-0.1-35.5c0-4.7-1.4-8.1-4.2-10.5
			c-2.8-2.3-6.2-3.5-10.3-3.4c-2.1,0-4.1,0.4-5.8,1.3c-1.7,0.9-3.3,1.9-4.6,3.2c-1.4,1.3-2.5,2.7-3.5,4.2c-1,1.5-1.9,2.9-2.6,4.1
			l0.2,36.7l-7.8,0L447,33.3l7.8,0l0,7.5c1.8-2.4,4.2-4.4,7.2-6.1c3-1.7,6.7-2.5,11.1-2.5c4.1,0,7.8,0.8,11.1,2.6
			c3.3,1.7,5.7,4.3,7.3,7.8c1-1.1,2.1-2.3,3.3-3.5c1.3-1.2,2.7-2.4,4.4-3.4c1.7-1,3.5-1.9,5.6-2.6c2.1-0.7,4.4-1,7-1
			c2.8,0,5.4,0.4,7.9,1.2c2.5,0.8,4.6,2,6.5,3.7c1.9,1.7,3.3,3.7,4.4,6.1c1.1,2.4,1.6,5.2,1.6,8.4l0.2,37L524.6,88.4z"/>
		<path class="st3" d="M574.3,88.2l0-5.9c-1.1,1.5-2.3,2.7-3.7,3.5c-1.4,0.9-2.8,1.5-4.3,2c-1.5,0.5-3.1,0.7-4.9,0.9
			c-1.7,0.1-3.6,0.2-5.5,0.2c-2.7,0-5.3-0.3-7.6-1c-2.3-0.7-4.4-1.6-6.1-3c-1.7-1.3-3.1-3-4.1-4.9c-1-2-1.5-4.2-1.5-6.8
			c0-3.1,0.5-5.8,1.7-8.1c1.1-2.3,2.7-4.2,4.6-5.7c2-1.5,4.2-2.7,6.8-3.4c2.6-0.7,5.3-1.1,8.2-1.1c3,0,5.8,0.1,8.5,0.3
			c2.7,0.2,5.3,0.8,7.7,1.6l0-4.5c0-4.2-1.3-7.4-4-9.7c-2.6-2.2-6.3-3.4-10.9-3.3c-3,0-5.4,0.4-7.5,1.1c-2,0.7-4,2.3-6,4.8l-5.4-4.6
			c2.4-2.8,5-4.9,8.1-6.2c3-1.3,6.8-2,11.2-2c3.2,0,6.2,0.4,9,1.2c2.7,0.8,5.1,2,7,3.6c2,1.6,3.5,3.6,4.6,6c1.1,2.4,1.6,5.1,1.6,8.2
			l0.2,36.9L574.3,88.2z M574.2,64.2c-2.3-1-4.7-1.6-7.2-1.8c-2.5-0.2-5.1-0.3-7.6-0.2c-1.8,0-3.7,0.2-5.4,0.5
			c-1.8,0.3-3.4,0.9-4.8,1.7c-1.4,0.8-2.6,1.9-3.5,3.3c-0.9,1.4-1.3,3.2-1.3,5.3c0,3.1,1.2,5.4,3.5,7c2.3,1.5,5.6,2.3,9.7,2.3
			c3.4,0,6.6-0.6,9.5-1.9c2.9-1.2,5.3-3.4,7.2-6.5L574.2,64.2z"/>
		<path class="st3" d="M620.5,45.7c-1.9-2.4-3.9-4.2-6-5.3c-2.1-1.1-4.7-1.7-7.7-1.7c-3.8,0-6.4,0.7-7.9,2.1
			c-1.5,1.4-2.3,3.2-2.2,5.3c0,1.5,0.4,2.7,1.1,3.8c0.7,1,1.6,1.9,2.8,2.6c1.1,0.7,2.5,1.4,4,1.9c1.5,0.5,3.1,1.1,4.7,1.6
			c2,0.7,4,1.4,6,2.1c2,0.8,3.8,1.8,5.5,3c1.7,1.3,3,2.8,4.1,4.6c1,1.8,1.6,4.1,1.6,6.8c0,2.5-0.5,4.8-1.5,6.8c-1,2-2.4,3.7-4.2,5.1
			c-1.8,1.4-3.9,2.4-6.2,3.1c-2.4,0.7-5,1.1-7.7,1.1c-4.2,0-7.9-0.7-11.2-2.1c-3.3-1.4-6.3-3.8-9.2-7.1l5.7-5.3
			c3.9,5.2,8.9,7.7,15,7.7c4,0,6.9-0.8,8.9-2.4c1.9-1.6,2.9-3.4,2.9-5.7c0-1.7-0.4-3.1-1.1-4.3c-0.7-1.1-1.7-2.1-2.9-2.9
			c-1.2-0.8-2.6-1.5-4.2-2c-1.6-0.5-3.3-1.1-5-1.6c-2-0.6-4-1.2-5.9-2c-2-0.7-3.7-1.7-5.3-2.8s-2.8-2.6-3.8-4.4
			c-1-1.8-1.5-4-1.5-6.8c0-4.9,1.7-8.6,5-11.3c3.4-2.7,7.8-4,13.2-4c3.8,0,7.3,0.6,10.3,2c3,1.3,5.9,3.6,8.6,6.9l-5.4,5.2
			L620.5,45.7z"/>
	</g>
	<g>
		<path class="st3" d="M85.5,74.6V58H68.8c-3,0-5.5-2.4-5.5-5.5l0,0c0-3,2.4-5.5,5.5-5.5h16.6l-0.1-16.9c0-3,2.4-5.5,5.5-5.5l0,0
			c3,0,5.5,2.4,5.5,5.5L96.4,47l16.9-0.1c3,0,5.5,2.4,5.5,5.5l0,0c0,3-2.4,5.5-5.5,5.5L96.4,58l0.1,16.6c0,3-2.4,5.5-5.5,5.5l0,0
			C88,80.1,85.5,77.7,85.5,74.6z"/>
	</g>
</g>
</svg>
