<?xml version="1.0" encoding="utf-8"?>
<!-- Generator: Adobe Illustrator 22.1.0, SVG Export Plug-In . SVG Version: 6.00 Build 0)  -->
<svg version="1.1" id="Layer_1" xmlns="http://www.w3.org/2000/svg" xmlns:xlink="http://www.w3.org/1999/xlink" x="0px" y="0px"
	 viewBox="0 0 692 111" style="enable-background:new 0 0 692 111;" xml:space="preserve">
<style type="text/css">
	.st0{fill:#FFFFFF;}
	.st1{fill:#6B0300;}
	.st2{font-family:'Berlin';}
	.st3{font-size:110.784px;}
	.st4{fill:#B61C16;}
</style>
<path class="st0" d="M640.7,111.2H14.4c-10.2,0-16.9-10.5-12.8-19.7l36.9-83c2.3-5.1,7.3-8.3,12.8-8.3h626.3
	c10.2,0,16.9,10.5,12.8,19.7l-36.9,83C651.2,107.9,646.2,111.2,640.7,111.2z"/>
<g>
	<text transform="matrix(1 -4.140000e-03 4.140000e-03 1 124.6752 90.098)"><tspan x="0" y="0" class="st1 st2 st3">Platafor</tspan><tspan x="320.3" y="0" class="st4 st2 st3">mas</tspan></text>
	<g>
		<path class="st4" d="M85.5,74.6L85.5,58L68.8,58c-3,0-5.5-2.4-5.5-5.5v0c0-3,2.4-5.5,5.5-5.5L85.4,47l-0.1-16.9
			c0-3,2.4-5.5,5.5-5.5h0c3,0,5.5,2.4,5.5,5.5l0.1,16.9l16.9-0.1c3,0,5.5,2.4,5.5,5.5v0c0,3-2.4,5.5-5.5,5.5l-16.9,0.1l0.1,16.6
			c0,3-2.4,5.5-5.5,5.5h0C88,80.1,85.5,77.7,85.5,74.6z"/>
	</g>
</g>
</svg>
